<svg xmlns="http://www.w3.org/2000/svg" viewBox="0 0 441.82 178.94"><defs><style>.cls-1{fill:#1a6daf;}.cls-2,.cls-3,.cls-4,.cls-5{fill:none;stroke-linecap:round;stroke-linejoin:round;stroke-width:3.05px;}.cls-2{stroke:#fdcd12;}.cls-3{stroke:#f45eac;}.cls-4{stroke:#1a6daf;}.cls-5{stroke:#25abbe;}.cls-6{fill:#25abbe;}.cls-7{fill:#fdcd12;}.cls-8{fill:#f45eac;}.cls-9{fill:#fff;}</style></defs><g id="Capa_2" data-name="Capa 2"><g id="Capa_1-2" data-name="Capa 1"><path class="cls-1" d="M195.82,132.07V120.69h1.82l3.7,5.46,3.71-5.46h1.8v11.38h-1.3v-6.46l0-3.48h-.16l-3.9,5.7h-.47l-3.84-5.7h-.14l0,3.48v6.46Z"/><path class="cls-1" d="M212.45,132.07l4.92-11.38h1.54l4.9,11.38h-1.39l-1.62-3.84h-5.41l-1.59,3.84Zm5.77-10H218l-2.14,5.11h4.5Z"/><path class="cls-1" d="M229.41,132.07V120.69h4.46a4.36,4.36,0,0,1,2.79.85,2.76,2.76,0,0,1,1.08,2.3h0a2.78,2.78,0,0,1-.69,1.82,3.87,3.87,0,0,1-2,1.16h0l3.45,5.25H237l-3.19-5h-3v5Zm4.2-10.26h-2.89v4.1h2.9a3.46,3.46,0,0,0,2-.54,1.77,1.77,0,0,0,.77-1.53h0c0-1.36-.94-2-2.81-2Z"/><path class="cls-1" d="M244.23,132.07V120.69h4a4.59,4.59,0,0,1,2.68.72,2.44,2.44,0,0,1,1,2.15h0a3,3,0,0,1-.3,1.3,2.44,2.44,0,0,1-.87,1h0v.07a3,3,0,0,1,1.46,1.07,2.8,2.8,0,0,1,.52,1.69h0a3.11,3.11,0,0,1-1.08,2.45,4.18,4.18,0,0,1-2.88.95h-4.51Zm4.51-5.5h-3.22V131h3.07a3.48,3.48,0,0,0,2-.55,1.93,1.93,0,0,0,.76-1.66h0c0-1.45-.89-2.17-2.66-2.17Zm-.42-4.81h-2.8v3.76h3a2.08,2.08,0,0,0,1.52-.51,1.9,1.9,0,0,0,.53-1.4h0a1.62,1.62,0,0,0-.61-1.37,2.61,2.61,0,0,0-1.67-.48Z"/><path class="cls-1" d="M266,132.07h-7.38V120.69h7.12v1.12H260v3.76h5.23v1.12H260v4.24H266Z"/><path class="cls-1" d="M273.3,120.69v10.24h5.49v1.14H272V120.69Z"/><path class="cls-1" d="M286.05,120.69v10.24h5.5v1.14h-6.81V120.69Z"/><path class="cls-1" d="M296.8,132.07l4.92-11.38h1.54l4.9,11.38h-1.39l-1.62-3.84h-5.41l-1.59,3.84Zm5.77-10h-.24l-2.14,5.11h4.5Z"/><path class="cls-1" d="M195.82,98.34V72.71H199l17.73,22.12L216.56,87V72.71h2.8V98.34h-3.28L198.35,76.06l.27,9.07V98.34Z"/><path class="cls-1" d="M229.17,98.34l11.08-25.63h3.47l11,25.63h-3.12L248,89.71H235.8l-3.59,8.63Zm13-22.59h-.56l-4.81,11.51H247Z"/><path class="cls-1" d="M276.28,87.42V85H286V95.81a17.18,17.18,0,0,1-10.41,3h0a14.13,14.13,0,0,1-6.52-1.5,11.85,11.85,0,0,1-4.79-4.57,13.83,13.83,0,0,1-1.85-7.25h0a12.64,12.64,0,0,1,3.94-9.59A13.53,13.53,0,0,1,276,72.2h0a16.94,16.94,0,0,1,9.46,2.6h0l-1.26,2.33a14.17,14.17,0,0,0-8.2-2.41h0a10.25,10.25,0,0,0-7.73,3,10.76,10.76,0,0,0-2.91,7.77h0A10.24,10.24,0,0,0,276,96.28h0a14,14,0,0,0,7.21-1.81h0v-7Z"/><path class="cls-1" d="M297,86.9V72.71h3V87.18c0,3,.67,5.3,2,6.84a8.13,8.13,0,0,0,11.33,0q2.06-2.31,2.05-6.84h0V72.71h3V86.9q0,6-2.82,9t-7.87,3q-5,0-7.84-3c-1.86-2-2.8-5-2.8-9Z"/><path class="cls-1" d="M329.51,98.34V72.71h8.67a11.59,11.59,0,0,1,7.18,2.11,6.86,6.86,0,0,1,2.8,5.77h0a7,7,0,0,1-2.77,5.92,11.47,11.47,0,0,1-7.21,2.13h-5.71v9.7Zm8.08-23.11h-5.12V86.08h5.12q7.61,0,7.61-5.49h0q0-5.36-7.61-5.36Z"/><path class="cls-1" d="M354.22,98.34,365.3,72.71h3.47l11,25.63H376.7L373,89.71H360.85l-3.59,8.63Zm13-22.59h-.55l-4.81,11.51H372Z"/><path class="cls-1" d="M389.63,98.34V72.71h10.05A9.88,9.88,0,0,1,406,74.62a6.27,6.27,0,0,1,2.42,5.19h0a6.21,6.21,0,0,1-1.55,4.1,8.38,8.38,0,0,1-4.4,2.6h0l7.76,11.83h-3.58L399.45,87h-6.87V98.34Zm9.46-23.11h-6.51v9.23h6.55a7.89,7.89,0,0,0,4.57-1.2,3.94,3.94,0,0,0,1.74-3.45h0q0-4.57-6.35-4.58Z"/><path class="cls-1" d="M420.22,98.34V72.71h2.92V87.06l13.64-14.35h3.74L430.39,83.2l11.43,15.14h-3.63l-9.81-13.29-5.24,5.09v8.2Z"/><circle class="cls-1" cx="87.33" cy="90.84" r="84.89"/><line class="cls-2" x1="54.66" y1="177.41" x2="87.33" y2="148.25"/><line class="cls-2" x1="78.48" y1="28.86" x2="112.68" y2="1.53"/><line class="cls-2" x1="143.36" y1="109.16" x2="177.72" y2="81.83"/><line class="cls-3" x1="143.97" y1="82.75" x2="174.36" y2="55.73"/><line class="cls-4" x1="17.25" y1="169.93" x2="47.64" y2="142.91"/><line class="cls-3" x1="1.53" y1="120.46" x2="32.98" y2="94.51"/><line class="cls-3" x1="115.58" y1="34.66" x2="147.49" y2="9.47"/><line class="cls-3" x1="6.87" y1="51.76" x2="38.02" y2="25.5"/><line class="cls-5" x1="5.19" y1="139.24" x2="68.09" y2="84.13"/><line class="cls-5" x1="114.2" y1="164.43" x2="177.26" y2="109.32"/><path class="cls-6" d="M170.85,106.42,90.38,175.58A84.93,84.93,0,0,0,170.85,106.42Z"/><path class="cls-1" d="M172.22,88.25l-99.7,86.26a79.47,79.47,0,0,0,14.81,1.37,20.71,20.71,0,0,0,3-.15l80.31-69.16a88.21,88.21,0,0,0,1.53-15.73Z"/><path class="cls-7" d="M59.39,171a105.88,105.88,0,0,0,14.2,3.66L172.07,88.4a86.84,86.84,0,0,0-2.45-17.86Z"/><path class="cls-8" d="M160.46,47.64,36.64,158.94A83.43,83.43,0,0,0,59.39,171L169.62,70.38A79.56,79.56,0,0,0,160.46,47.64Z"/><path class="cls-8" d="M87.33,6A84.89,84.89,0,0,0,4,74.81L92.83,6.11C91,6,89.16,6,87.33,6Z"/><path class="cls-1" d="M148.4,31.91,17.25,138.78A81.59,81.59,0,0,0,37.1,159.24L160.62,47.79A89.94,89.94,0,0,0,148.4,31.91Z"/><path class="cls-1" d="M105.19,7.79,2.75,87.18l-.15.15c0,1.22-.16,2.29-.16,3.51A91.19,91.19,0,0,0,2.9,100L128.1,16.34A79.58,79.58,0,0,0,105.19,7.79Z"/><path class="cls-6" d="M137.1,22,8.4,122.14a81.66,81.66,0,0,0,8.85,16.49L148.4,31.76A98.85,98.85,0,0,0,137.1,22Z"/><path class="cls-8" d="M128.1,16.34,2.9,100a82.34,82.34,0,0,0,5.5,22.14L137.1,22A89.26,89.26,0,0,0,128.1,16.34Z"/><path class="cls-7" d="M91.61,6,7.18,62.44A86.66,86.66,0,0,0,2.29,90.08L107.48,8.24A91,91,0,0,0,91.61,6Z"/><circle class="cls-9" cx="87.62" cy="90.47" r="73.22"/><path class="cls-1" d="M87.62,77.8a1,1,0,0,0,1-1v-11a1,1,0,1,0-1.92,0V76.83A1,1,0,0,0,87.62,77.8Z"/><path class="cls-1" d="M112.82,103h10.94a1,1,0,1,0,0-1.92H112.82a1,1,0,1,0,0,1.92Z"/><path class="cls-1" d="M50.52,102a1,1,0,0,0,1,1h11a1,1,0,0,0,0-1.92H51.49A1,1,0,0,0,50.52,102Z"/><path class="cls-1" d="M105.44,85.18a1,1,0,0,0,.68-.28l7.73-7.74a1,1,0,0,0-1.36-1.36l-7.73,7.73a1,1,0,0,0,.68,1.65Z"/><path class="cls-1" d="M61.39,75.8a1,1,0,0,0,0,1.36l7.73,7.73a1,1,0,1,0,1.37-1.36L62.75,75.8A1,1,0,0,0,61.39,75.8Z"/><path class="cls-1" d="M129.61,108.84h-28a15.2,15.2,0,1,0-28,0h-28a1,1,0,1,0,0,1.92h84a1,1,0,1,0,0-1.92Zm-30.14,0H75.77a13.28,13.28,0,1,1,23.7,0Z"/><path class="cls-1" d="M111.29,120.39H64a1,1,0,1,0,0,1.92h47.34a1,1,0,0,0,0-1.92Z"/><path class="cls-1" d="M98.82,131.16H76.43a1,1,0,1,0,0,1.93H98.82a1,1,0,0,0,0-1.93Z"/><path class="cls-1" d="M107.05,49.65a5.7,5.7,0,0,1,1.66.24V48a7,7,0,0,0-1.66-.19,7.54,7.54,0,0,0-7,4.86,7.52,7.52,0,0,0-9.24-4.53v1.9a5.71,5.71,0,0,1,7.88,6.15h2.73a5.69,5.69,0,0,1-.07-.83A5.75,5.75,0,0,1,107.05,49.65Z"/><path class="cls-1" d="M128.9,62.44a5.65,5.65,0,0,1,1.66.25V60.83a7.56,7.56,0,0,0-8.7,4.68,7.55,7.55,0,0,0-7-4.86,7.23,7.23,0,0,0-2.2.33v1.9A5.71,5.71,0,0,1,120.49,69h2.73a5.83,5.83,0,0,1-.07-.84A5.76,5.76,0,0,1,128.9,62.44Z"/></g></g></svg>